<?xml version="1.0" encoding="UTF-8" standalone="no"?>
<!-- Created with Inkscape (http://www.inkscape.org/) -->

<svg
   width="210mm"
   height="297mm"
   viewBox="0 0 210 297"
   version="1.1"
   id="svg5"
   xml:space="preserve"
   inkscape:version="1.2.1 (9c6d41e410, 2022-07-14)"
   sodipodi:docname="logo-rascunho.svg"
   xmlns:inkscape="http://www.inkscape.org/namespaces/inkscape"
   xmlns:sodipodi="http://sodipodi.sourceforge.net/DTD/sodipodi-0.dtd"
   xmlns:xlink="http://www.w3.org/1999/xlink"
   xmlns="http://www.w3.org/2000/svg"
   xmlns:svg="http://www.w3.org/2000/svg"><sodipodi:namedview
     id="namedview7"
     pagecolor="#ffffff"
     bordercolor="#000000"
     borderopacity="0.25"
     inkscape:showpageshadow="2"
     inkscape:pageopacity="0.0"
     inkscape:pagecheckerboard="0"
     inkscape:deskcolor="#d1d1d1"
     inkscape:document-units="mm"
     showgrid="false"
     inkscape:zoom="2.1770318"
     inkscape:cx="191.54521"
     inkscape:cy="106.33745"
     inkscape:window-width="1920"
     inkscape:window-height="1051"
     inkscape:window-x="-9"
     inkscape:window-y="-9"
     inkscape:window-maximized="1"
     inkscape:current-layer="layer1" /><defs
     id="defs2"><linearGradient
       id="linearGradient5415"
       inkscape:swatch="solid"><stop
         style="stop-color:#000000;stop-opacity:1;"
         offset="0"
         id="stop5413" /></linearGradient><linearGradient
       inkscape:collect="always"
       xlink:href="#linearGradient5415"
       id="linearGradient5417"
       x1="215.20488"
       y1="95.413798"
       x2="228.2459"
       y2="95.413798"
       gradientUnits="userSpaceOnUse"
       gradientTransform="matrix(1.3407782,-0.89476261,0.82573875,1.523213,-206.37146,79.096174)" /></defs><g
     inkscape:label="Camada 1"
     inkscape:groupmode="layer"
     id="layer1"><g
       id="g254"
       transform="matrix(-1,0,0,1.0049026,317.49199,-0.10423)"><g
         id="g380"
         transform="matrix(0.73727734,0.6722942,-0.67890234,0.73727734,117.29343,-93.550641)"><g
           id="g374"><path
             style="fill:#000000;stroke-width:0.264583"
             d="m 148.92969,38.070313 2.75,35.492187 c 0,0 0.77343,5.070311 0.77343,4.898438 0,-0.171876 1.97657,4.382812 6.35938,4.03906 4.38281,-0.343749 6.78906,-4.640625 6.78906,-4.640625 l 0.0859,-8.421873 -1.03125,-31.796875 c 0,0 -0.6875,-4.898438 -7.64844,-6.101562 -6.96094,-1.203126 -7.99219,6.53125 -8.07812,6.53125 z"
             id="path245" /><path
             style="fill:#000000;stroke-width:0.264583"
             d="m 155.54687,31.420898 -0.0322,-0.859375 -0.23633,-0.118163 -0.16113,0.03223 -0.18262,-0.397462 h -0.0645 l -0.0215,0.182618 -0.46191,-0.02148 -0.0967,-0.161134 -0.005,-1.229979 0.45654,-0.01611 0.0161,0.04834 0.0806,-0.0054 -0.0107,-0.483399 h -0.46192 l 0.0108,0.343749 -0.16114,0.03223 0.0107,-0.04297 -1.38574,-0.107421 -0.45117,0.03223 -0.17187,0.161134 -0.51563,0.03223 -0.0859,-0.08594 h -2.14843 c 0,0 -0.043,-1.482421 -0.12891,-1.622071 -0.0859,-0.139647 2.13769,-0.247068 2.13769,-0.247068 l 0.043,-0.107423 0.63379,0.02148 0.0537,-0.09668 c 0,0 1.79395,0.182618 1.87989,0.06445 0.0859,-0.118163 0.043,0.300781 0.043,0.300781 l 0.23633,-0.01074 0.24707,0.03223 0.18262,-0.08594 h 0.29004 v -0.300781 l -0.2041,-0.118165 0.2041,-1.160155 3.81347,-1.385743 0.0645,0.236329 v 1.86914 l 0.1289,0.19336 0.10743,0.451171 5.43555,1.740236 c 0,0 2.32031,0.945311 2.77148,1.804686 0.45117,0.859374 -0.83789,0.601562 -0.42969,0.623046 0.4082,0.02148 -0.45117,-0.236326 -0.45117,-0.236326 l -1.33203,-1.095703 -7.41211,-1.56836 -0.0215,2.298827 0.19336,0.150392 0.043,1.267576 z"
             id="path247" /><path
             style="fill:#000000;stroke-width:0.264583"
             d="m 159.72603,23.714317 c 0,0 0.008,0.919101 0.15192,0.896313 0.14432,-0.02279 4.94491,-2.597789 4.94491,-2.597789 l 0.43296,-0.410177 0.0456,-0.227876 -0.21268,-0.113938 -0.66085,0.235472 z"
             id="path249" /></g></g><path
         style="opacity:1;fill:none;fill-opacity:0;stroke:#000000;stroke-width:1.26191;stroke-dasharray:none;stroke-opacity:1"
         d="m 208.92558,27.87654 c 0,0 -9.26326,-12.235533 -29.65789,-4.129631"
         id="path4655"
         sodipodi:nodetypes="cc" /><path
         style="opacity:1;fill:url(#linearGradient5417);fill-opacity:1;stroke:none;stroke-width:2.10445;stroke-dasharray:none;stroke-opacity:1"
         d="m 180.30178,24.286698 -0.51743,-1.605943 -0.53148,0.177311 -0.49341,-0.114195 -18.2673,4.075113 0.23589,4.632057 0.54825,0.432383 1.51182,-0.03327 16.60964,-6.915775 0.35032,-0.366825 z"
         id="path5409" /><ellipse
         style="opacity:1;fill:#000000;fill-opacity:0;stroke:none;stroke-width:1.26191;stroke-dasharray:none;stroke-opacity:1"
         id="path5419"
         cx="-282.32208"
         cy="41.045578"
         transform="scale(-1,1)"
         rx="10.205078"
         ry="12.250487" /></g><path
       id="path5491"
       style="opacity:1;fill:#ff0000;fill-opacity:0;stroke:#ff3434;stroke-width:0.3;stroke-dasharray:none;stroke-opacity:1"
       d="M 35.749756,28.445292 A 13.320312,13.406249 0 0 0 22.429639,41.851709 13.320312,13.406249 0 0 0 35.749756,55.257609 13.320312,13.406249 0 0 0 49.07039,41.851709 13.320312,13.406249 0 0 0 35.749756,28.445292 Z" /><path
       style="opacity:1;fill:#ff0000;fill-opacity:0;stroke:#ff3434;stroke-width:0.3;stroke-dasharray:none;stroke-opacity:1"
       d="m 29.691406,53.925782 1.160156,1.718749 0.257813,1.718749 1.246094,1.332031 v 0.386721 l 5.502365,0.226549 0.182301,-0.303834 1.519174,-1.397643 0.121534,-1.579941 1.64071,-2.005311 c 0,0 -4.665594,2.420837 -11.630147,-0.09607 z"
       id="path5703"
       sodipodi:nodetypes="ccccccccccc" /><path
       style="opacity:1;fill:#ff0000;fill-opacity:0;stroke:#ff3434;stroke-width:0.3;stroke-dasharray:none;stroke-opacity:1"
       d="m 32.312498,59.082032 -0.859374,0.300781 -0.257813,7.949218 c 0,0 3.093752,1.976562 8.078126,-0.04297 l -0.04297,-7.734373 -1.289063,-0.386719 z"
       id="path5705" /><path
       style="opacity:1;fill:none;fill-opacity:0;stroke:#ffffff;stroke-width:0.368281;stroke-dasharray:none;stroke-opacity:1"
       d="m 128.78445,207.04351 c -9.15549,-1.1305 -14.68738,-3.07022 -21.18101,-7.42699 -10.801883,-7.2473 -18.173308,-18.21486 -21.102096,-31.39672 -0.610714,-2.7487 -0.716332,-4.21779 -0.721856,-10.04067 -0.0056,-5.8538 0.09468,-7.2739 0.706999,-10.01624 2.958906,-13.25185 10.300641,-24.16012 21.185753,-31.47756 8.0316,-5.39918 15.96655,-7.93702 25.82185,-8.25861 4.70321,-0.15347 6.11726,-0.0783 9.5399,0.50686 20.24147,3.46088 35.75593,18.21213 40.5204,38.52705 0.85192,3.63242 0.9135,4.36178 0.905,10.7185 -0.008,5.81631 -0.11449,7.29507 -0.72451,10.04067 -2.89226,13.01745 -10.46856,24.29371 -21.09808,31.40152 -5.68297,3.80013 -10.40559,5.71325 -17.20237,6.96865 -3.37595,0.62355 -13.12294,0.88906 -16.64998,0.45354 z"
       id="path9286"
       transform="scale(0.26458333)" /><path
       style="opacity:1;fill:none;fill-opacity:0;stroke:#ffffff;stroke-width:0.368281;stroke-dasharray:none;stroke-opacity:1"
       d="m 127.32147,206.89925 c -5.73676,-0.81923 -10.70139,-2.25438 -14.64158,-4.23254 -14.24706,-7.15268 -24.830677,-22.11258 -26.756775,-37.82059 -1.347344,-10.98806 0.737067,-21.78915 6.028821,-31.24042 7.073061,-12.63275 19.235174,-21.43318 33.909284,-24.53654 3.93577,-0.83236 14.59867,-0.83068 18.51378,0.003 10.30678,2.19451 18.35385,6.51083 25.50886,13.68256 7.27747,7.29447 11.77275,15.59502 13.99554,25.8428 0.85106,3.92366 0.86479,15.20305 0.0233,19.11248 -2.66275,12.37011 -9.41061,23.11577 -19.09862,30.41365 -5.81052,4.377 -11.46188,6.93251 -18.35653,8.30071 -4.61894,0.91659 -14.3425,1.15807 -19.12604,0.47497 z"
       id="path9288"
       transform="scale(0.26458333)" /><path
       style="opacity:1;fill:none;fill-opacity:0;stroke:#ffffff;stroke-width:0.368281;stroke-dasharray:none;stroke-opacity:1"
       d="m 128.94685,207.18368 c -2.68862,-0.28568 -8.44988,-1.48432 -10.99833,-2.28821 -6.24716,-1.97063 -11.94794,-5.65063 -17.7572,-11.46274 -5.940778,-5.94369 -9.734859,-12.02574 -12.266125,-19.66304 -1.901697,-5.73779 -2.178324,-7.75062 -2.164948,-15.75296 0.01155,-6.90869 0.06254,-7.51219 0.933079,-11.0433 1.569112,-6.36469 3.876922,-11.6714 7.283074,-16.74714 7.23472,-10.78093 18.58123,-18.38603 31.56002,-21.15337 3.94701,-0.84159 15.21638,-0.84159 19.16338,0 6.48838,1.38345 12.86776,4.09621 18.35138,7.80372 4.01218,2.71265 10.47748,9.22314 13.11535,13.20702 3.61348,5.45729 6.29602,11.84598 7.77084,18.50683 0.69347,3.13197 0.77249,15.23665 0.12194,18.6787 -0.58223,3.08054 -2.47948,8.86281 -3.94466,12.02215 -5.41051,11.66658 -16.23849,21.70109 -27.61957,25.59562 -4.92293,1.68459 -8.41283,2.20484 -15.59055,2.32412 -3.66216,0.0608 -7.24311,0.0485 -7.95768,-0.0274 z"
       id="path9290"
       transform="scale(0.26458333)" /><path
       style="opacity:1;fill:none;fill-opacity:0;stroke:#ffffff;stroke-width:0.368281;stroke-dasharray:none;stroke-opacity:1"
       d="m 125.69882,206.77788 c -11.1828,-2.06801 -17.51047,-5.35802 -25.35681,-13.18403 -6.233673,-6.21752 -9.823792,-11.95527 -12.512904,-19.99817 -1.883559,-5.63356 -2.334435,-9.21829 -2.143311,-17.04056 0.170317,-6.97071 0.669543,-9.84649 2.678274,-15.42815 5.78077,-16.06303 19.726331,-28.23659 36.685141,-32.02373 3.46802,-0.77446 13.77671,-0.96915 17.90732,-0.3382 6.47693,0.98936 13.86173,3.91635 19.85054,7.86784 3.89727,2.57146 10.68767,9.39466 13.36645,13.43101 3.54093,5.33541 5.84412,10.56242 7.41976,16.83892 0.82017,3.26709 0.87452,3.94021 0.8844,10.95152 0.0116,8.23894 -0.19556,9.83924 -1.9941,15.40486 -3.50251,10.8386 -10.53815,20.2685 -19.7572,26.48069 -5.12161,3.45115 -9.74204,5.41204 -15.82382,6.71553 -4.5335,0.97165 -16.69327,1.15658 -21.20374,0.32247 z"
       id="path9292"
       transform="scale(0.26458333)" /><path
       style="opacity:1;fill:none;fill-opacity:0;stroke:#ffffff;stroke-width:0.368281;stroke-dasharray:none;stroke-opacity:1"
       d="m 126.07508,206.8772 c -10.78441,-1.67747 -18.49707,-5.70897 -26.430764,-13.81568 -6.402312,-6.54193 -10.354523,-13.52488 -12.849034,-22.70227 -1.010112,-3.71623 -1.015357,-3.77736 -1.031263,-12.01771 -0.0156,-8.08399 0.0062,-8.36811 0.911255,-11.85532 4.536224,-17.4789 16.532766,-30.42753 33.394476,-36.04477 5.24991,-1.74894 8.96963,-2.20174 16.67238,-2.02952 5.91016,0.13214 6.83295,0.23337 10.2313,1.12233 6.4861,1.69668 12.77107,4.6738 17.70177,8.38513 2.99835,2.25685 8.13453,7.46178 10.54964,10.69083 3.61152,4.8287 7.11318,12.58645 8.65521,19.17521 0.88806,3.79447 0.88806,16.99293 0,20.7874 -4.87957,20.84931 -21.47366,36.48991 -40.82086,38.47531 -4.50602,0.46241 -13.49393,0.37194 -16.98411,-0.17094 z"
       id="path9294"
       transform="scale(0.26458333)" /><path
       style="opacity:1;fill:none;fill-opacity:0;stroke:#ffffff;stroke-width:0.368281;stroke-dasharray:none;stroke-opacity:1"
       d="m 127.64764,207.18352 c -11.82726,-1.78316 -19.56576,-5.57589 -27.43709,-13.44722 -6.679872,-6.67987 -10.88662,-13.99609 -13.573037,-23.60571 -0.87156,-3.11766 -0.889133,-3.35847 -0.872189,-11.95146 0.01654,-8.38922 0.05375,-8.90418 0.857618,-11.86996 2.620081,-9.66648 6.940346,-17.17892 13.720508,-23.85838 6.62856,-6.53011 13.93322,-10.65582 23.08175,-13.03671 3.46096,-0.90071 3.82201,-0.92983 11.53051,-0.92983 8.53001,0 9.43164,0.11204 14.94094,1.85657 15.38625,4.87209 27.38542,16.81929 32.5872,32.44606 1.91273,5.74608 2.00651,6.49009 1.98095,15.71706 -0.0226,8.15481 -0.0539,8.55644 -0.91137,11.69291 -2.57338,9.41287 -7.15327,17.32428 -13.82002,23.87303 -6.6438,6.52621 -14.04024,10.5904 -22.75998,12.50613 -1.78942,0.39314 -4.54828,0.56429 -10.39371,0.64481 -4.37672,0.0603 -8.39616,0.0435 -8.93208,-0.0373 z"
       id="path9296"
       transform="scale(0.26458333)" /><path
       style="opacity:1;fill:none;fill-opacity:0;stroke:#ffffff;stroke-width:0.368281;stroke-dasharray:none;stroke-opacity:1"
       d="m 124.0748,206.61534 c -9.2611,-1.98603 -14.8648,-4.76025 -21.69034,-10.73822 -7.563731,-6.62449 -12.689364,-14.91525 -15.739234,-25.45835 -0.742148,-2.56553 -0.829891,-3.52463 -0.971175,-10.61562 -0.174618,-8.76402 0.118085,-11.39219 1.865067,-16.74633 2.555999,-7.83363 6.624697,-14.44633 12.482692,-20.28765 5.70334,-5.68712 11.83158,-9.58713 19.01854,-12.1034 5.64006,-1.97467 7.18063,-2.18157 16.24016,-2.181 7.65224,4.8e-4 8.50492,0.0587 11.20571,0.76509 14.90124,3.89744 26.72254,13.42419 33.30782,26.84266 1.98175,4.03812 4.03872,10.24477 4.50406,13.59047 0.45432,3.26638 0.45502,13.7165 0.001,16.99872 -0.79913,5.7791 -3.94048,13.46347 -8.00507,19.58202 -5.6934,8.57044 -14.4624,15.47968 -23.85064,18.79232 -5.20557,1.83678 -6.84145,2.05886 -16.18862,2.19766 -8.08832,0.12012 -8.82271,0.0816 -12.18012,-0.63837 z"
       id="path9298"
       transform="scale(0.26458333)" /><path
       style="opacity:1;fill:none;fill-opacity:0;stroke:#ffffff;stroke-width:0.368281;stroke-dasharray:none;stroke-opacity:1"
       d="m 123.75,206.58823 c -9.34487,-1.97766 -15.55382,-5.20187 -22.45944,-11.66283 -6.398261,-5.98627 -10.920909,-13.08451 -13.774196,-21.61845 -1.660229,-4.9656 -1.917096,-6.98753 -1.921846,-15.12782 -0.0045,-7.62641 0.226505,-9.62806 1.642313,-14.23366 5.243136,-17.05579 18.528109,-29.91329 35.701159,-34.5524 2.76382,-0.74661 3.85572,-0.84992 10.46945,-0.99055 8.32558,-0.17702 10.8974,0.0821 15.69207,1.58079 16.36528,5.1155 28.27823,16.92902 33.61573,33.33519 1.77572,5.45813 2.03972,7.85355 1.84791,16.76739 -0.14553,6.76352 -0.24377,7.80468 -0.98535,10.44266 -4.87667,17.34747 -17.71149,30.85024 -33.64656,35.39763 -3.9316,1.12196 -7.5873,1.4581 -15.62514,1.43674 -6.02488,-0.016 -7.4736,-0.12234 -10.5561,-0.77469 z"
       id="path9300"
       transform="scale(0.26458333)" /><path
       style="opacity:1;fill:none;fill-opacity:0;stroke:#ffffff;stroke-width:0.3;stroke-dasharray:none;stroke-opacity:1"
       d="m 29.684673,53.809169 c 0,0 7.018588,2.947199 11.454579,0.303834"
       id="path9464" /></g></svg>
